<svg version="1.1" xmlns="http://www.w3.org/2000/svg" xmlns:xlink="http://www.w3.org/1999/xlink" width="303" height="284"><g transform="translate(-91.80554,-21.74535)"><g data-paper-data="{&quot;isPaintingLayer&quot;:true}" fill="none" fill-rule="nonzero" stroke="none" stroke-width="none" stroke-linecap="butt" stroke-linejoin="miter" stroke-miterlimit="10" stroke-dasharray="" stroke-dashoffset="0" font-family="none" font-weight="none" font-size="none" text-anchor="none" style="mix-blend-mode: normal"><path d="M92.80554,304.74535v-282h301v282z" data-paper-data="{&quot;origPos&quot;:null}" fill="#6267f2" stroke="#000000" stroke-width="2"/><path d="M228,168h24v24h-24z" fill="none" stroke="none" stroke-width="1"/><path d="M242.19231,118.19231c-1.91692,0 -3.42308,1.50615 -3.42308,3.42308v13.69231h-41.07692l0.06846,14.51385c11.98077,4.65538 20.47,16.36231 20.47,29.98615c0,13.62385 -8.55769,25.33077 -20.53846,29.98615v14.51385h14.51385c4.65538,-11.98077 16.36231,-20.53846 29.98615,-20.53846c13.62385,0 25.33077,8.55769 29.98615,20.53846h14.51385v-41.07692h13.69231c1.91692,0 3.42308,-1.50615 3.42308,-3.42308c0,-1.91692 -1.50615,-3.42308 -3.42308,-3.42308h-13.69231v-41.07692h-41.07692v-13.69231c0,-1.91692 -1.50615,-3.42308 -3.42308,-3.42308M259.30769,121.61538h27.38462c7.53077,0 13.69231,6.16154 13.69231,13.69231v27.38462c9.44769,0 17.11538,7.66769 17.11538,17.11538c0,9.44769 -7.66769,17.11538 -17.11538,17.11538v27.38462c0,7.53077 -6.16154,13.69231 -13.69231,13.69231h-26.01538v-2.05385c0,-10.20077 -8.28385,-18.48462 -18.48462,-18.48462c-10.20077,0 -18.48462,8.28385 -18.48462,18.48462v2.05385h-26.01538c-7.53077,0 -13.69231,-6.16154 -13.69231,-13.69231v-26.01538h2.05385c10.20077,0 18.48462,-8.28385 18.48462,-18.48462c0,-10.20077 -8.28385,-18.48462 -18.48462,-18.48462h-1.98538v-26.01538c0,-7.53077 6.09308,-13.69231 13.62385,-13.69231h27.38462c0,-9.44769 7.66769,-17.11538 17.11538,-17.11538c9.44769,0 17.11538,7.66769 17.11538,17.11538z" data-paper-data="{&quot;origPos&quot;:null}" fill="#ffffff" stroke="none" stroke-width="1"/></g></g></svg>